<?xml version="1.0" encoding="UTF-8"?>
<svg xmlns="http://www.w3.org/2000/svg" width="900" height="320" viewBox="0 0 900 320" role="img" class="optical-map"><title>Displacer pair · XY</title><desc>Router schematic. Grid in millimetres; optic symbols are not to scale. Polarization marks are reference annotations only. Beam data-world-start/end attributes preserve XYZ in millimetres.</desc><rect width="900" height="320" fill="#fbfcfd"/><path d="M50 0 V320" stroke="#e8edf1" stroke-width="1"/><path d="M116.6667 0 V320" stroke="#e8edf1" stroke-width="1"/><path d="M183.3333 0 V320" stroke="#e8edf1" stroke-width="1"/><path d="M250 0 V320" stroke="#e8edf1" stroke-width="1"/><path d="M316.6667 0 V320" stroke="#e8edf1" stroke-width="1"/><path d="M383.3333 0 V320" stroke="#e8edf1" stroke-width="1"/><path d="M450 0 V320" stroke="#e8edf1" stroke-width="1"/><path d="M516.6667 0 V320" stroke="#e8edf1" stroke-width="1"/><path d="M583.3333 0 V320" stroke="#e8edf1" stroke-width="1"/><path d="M650 0 V320" stroke="#e8edf1" stroke-width="1"/><path d="M716.6667 0 V320" stroke="#e8edf1" stroke-width="1"/><path d="M783.3333 0 V320" stroke="#e8edf1" stroke-width="1"/><path d="M850 0 V320" stroke="#e8edf1" stroke-width="1"/><path d="M0 40 H900" stroke="#e8edf1" stroke-width="1"/><path d="M0 106.6667 H900" stroke="#e8edf1" stroke-width="1"/><path d="M0 173.3333 H900" stroke="#e8edf1" stroke-width="1"/><path d="M0 240 H900" stroke="#e8edf1" stroke-width="1"/><path d="M0 306.6667 H900" stroke="#e8edf1" stroke-width="1"/><path d="M50,173.3333 L183.3333,173.3333" fill="none" stroke="#fff" stroke-width="4.5"/><line class="beam" x1="50" y1="173.3333" x2="183.3333" y2="173.3333" data-world-start="0,0,0" data-world-end="20,0,0" data-wavelength-nm="800" data-spectral-weight="1" stroke="#d63b4e" stroke-width="2.2" ><title>Split and recombine — 001 p20</title></line><path d="M-5 -3 L2 0 L-5 3" transform="translate(140.6667 173.3333) rotate(0)" fill="none" stroke="#d63b4e" stroke-width="1.8"/><path d="M183.3333,173.3333 L516.6667,173.3333" fill="none" stroke="#fff" stroke-width="4.5"/><line class="beam" x1="183.3333" y1="173.3333" x2="516.6667" y2="173.3333" data-world-start="20,0,0" data-world-end="70,0,0" data-wavelength-nm="800" data-spectral-weight="1" stroke="#d63b4e" stroke-width="2.2" ><title>Split and recombine — 003 p50</title></line><path d="M-5 -3 L2 0 L-5 3" transform="translate(410 173.3333) rotate(0)" fill="none" stroke="#d63b4e" stroke-width="1.8"/><path d="M183.3333,146.6667 L516.6667,146.6667" fill="none" stroke="#fff" stroke-width="4.5"/><line class="beam" x1="183.3333" y1="146.6667" x2="516.6667" y2="146.6667" data-world-start="20,4,0" data-world-end="70,4,0" data-wavelength-nm="800" data-spectral-weight="1" stroke="#d63b4e" stroke-width="2.2" stroke-dasharray="6 3"><title>Split and recombine — 003 p50 · secondary</title></line><path d="M-5 -3 L2 0 L-5 3" transform="translate(410 146.6667) rotate(0)" fill="none" stroke="#d63b4e" stroke-width="1.8"/><path d="M516.6667,173.3333 L850,173.3333" fill="none" stroke="#fff" stroke-width="4.5"/><line class="beam" x1="516.6667" y1="173.3333" x2="850" y2="173.3333" data-world-start="70,0,0" data-world-end="120,0,0" data-wavelength-nm="800" data-spectral-weight="1" stroke="#d63b4e" stroke-width="2.2" ><title>Split and recombine — 005 p50</title></line><path d="M-5 -3 L2 0 L-5 3" transform="translate(743.3333 173.3333) rotate(0)" fill="none" stroke="#d63b4e" stroke-width="1.8"/><g class="map-optic" data-kind="bd" transform="translate(183.3333,173.3333)"><g transform="rotate(0)"><g transform="scale(1 -1)" stroke="#344e61" stroke-width="1.7" stroke-linejoin="round"><g fill="#e1eee8"><path d="M-18 -12 H10 L18 12 H-10 Z"/></g><g fill="none"><path d="M-12 -4 H1 L9 4 H14" stroke="#567d86"/><circle cx="-7" cy="4" r="2.7"/><circle cx="-7" cy="4" r=".7" fill="#344e61"/><path d="M7 -9 V-1 M4 -6 L7 -9 L10 -6 M4 -4 L7 -1 L10 -4"/></g></g></g><text x="16" y="-19" text-anchor="start" font-size="10" font-family="sans-serif" fill="#23435a" paint-order="stroke" stroke="#fbfcfd" stroke-width="3">1 · bd4h</text><title>Split and recombine · 2 · bd4h — polarization marks are schematic references only</title></g><g class="map-optic" data-kind="bd" transform="translate(516.6667,173.3333)"><g transform="rotate(0)"><g transform="scale(1 1)" stroke="#344e61" stroke-width="1.7" stroke-linejoin="round"><g fill="#e1eee8"><path d="M-18 -12 H10 L18 12 H-10 Z"/></g><g fill="none"><path d="M-12 -4 H1 L9 4 H14" stroke="#567d86"/><circle cx="-7" cy="4" r="2.7"/><circle cx="-7" cy="4" r=".7" fill="#344e61"/><path d="M7 -9 V-1 M4 -6 L7 -9 L10 -6 M4 -4 L7 -1 L10 -4"/></g></g></g><text x="16" y="-19" text-anchor="start" font-size="10" font-family="sans-serif" fill="#23435a" paint-order="stroke" stroke="#fbfcfd" stroke-width="3">2 · _bd4h</text><title>Split and recombine · 4 · _bd4h — polarization marks are schematic references only</title></g><rect x="0" y="295" width="900" height="25" fill="#fbfcfd" fill-opacity=".94"/><text x="12" y="311" font-size="11" font-family="sans-serif" fill="#516676">XY · grid 10 mm · 100% · symbols not to scale</text></svg>